<?xml version="1.0" standalone="no"?>
<!DOCTYPE svg PUBLIC "-//W3C//DTD SVG 20010904//EN"
 "http://www.w3.org/TR/2001/REC-SVG-20010904/DTD/svg10.dtd">
<svg version="1.0" xmlns="http://www.w3.org/2000/svg"
 width="120.000000pt" height="120.000000pt" viewBox="0 0 120.000000 120.000000"
 preserveAspectRatio="xMidYMid meet">
<metadata>
Created by potrace 1.11, written by Peter Selinger 2001-2013
</metadata>
<g transform="translate(0.000000,120.000000) scale(0.100000,-0.100000)"
fill="#000000" stroke="none">
<path d="M213 873 c4 -32 6 -61 7 -65 0 -5 4 -8 9 -8 5 0 7 26 4 58 l-5 59 91
-2 c50 -2 94 1 97 6 3 5 -43 9 -102 9 l-106 0 5 -57z"/>
<path d="M495 920 c3 -5 8 -10 11 -10 2 0 4 5 4 10 0 6 -5 10 -11 10 -5 0 -7
-4 -4 -10z"/>
<path d="M548 923 c7 -3 16 -2 19 1 4 3 -2 6 -13 5 -11 0 -14 -3 -6 -6z"/>
<path d="M595 919 c-3 -4 2 -6 10 -5 21 3 28 13 10 13 -9 0 -18 -4 -20 -8z"/>
<path d="M656 922 c-3 -5 1 -9 9 -9 8 0 12 4 9 9 -3 4 -7 8 -9 8 -2 0 -6 -4
-9 -8z"/>
<path d="M700 920 c0 -5 7 -7 15 -4 8 4 15 8 15 10 0 2 -7 4 -15 4 -8 0 -15
-4 -15 -10z"/>
<path d="M766 922 c-3 -5 1 -9 9 -9 8 0 15 4 15 9 0 4 -4 8 -9 8 -6 0 -12 -4
-15 -8z"/>
<path d="M880 921 c0 -7 43 -11 125 -11 l125 0 -4 -28 c-1 -15 1 -36 5 -47 7
-18 8 -18 9 5 1 14 3 37 4 52 1 15 -3 29 -9 31 -28 9 -255 7 -255 -2z"/>
<path d="M257 837 l4 -52 -90 -60 c-50 -33 -90 -63 -91 -66 0 -3 39 -24 88
-47 l88 -42 -4 -40 c-3 -27 0 -40 8 -40 9 0 11 11 7 35 -3 19 -2 35 3 35 14 0
19 -14 25 -61 3 -24 7 -45 9 -46 2 -2 31 1 66 6 l62 10 72 -54 c40 -30 75 -55
78 -55 5 0 0 31 -16 108 -3 12 -1 22 3 22 4 0 68 9 142 20 74 12 150 23 169
26 19 3 46 7 60 9 14 3 48 7 75 10 93 11 86 -3 83 173 l-3 157 -421 2 -421 2
4 -52z"/>
<path d="M103 840 c-24 -11 -43 -23 -43 -27 1 -9 80 -66 85 -61 7 7 14 108 7
107 -4 0 -26 -9 -49 -19z"/>
<path d="M1132 780 c0 -14 2 -19 5 -12 2 6 2 18 0 25 -3 6 -5 1 -5 -13z"/>
<path d="M1131 724 c0 -11 3 -14 6 -6 3 7 2 16 -1 19 -3 4 -6 -2 -5 -13z"/>
<path d="M1129 609 c-1 -19 -1 -39 0 -45 2 -14 -17 -19 -149 -39 -57 -9 -106
-18 -109 -20 -11 -12 9 -11 89 0 47 7 105 16 130 20 25 4 46 8 47 9 6 5 6 97
0 102 -4 4 -8 -8 -8 -27z"/>
<path d="M790 489 c0 -5 5 -7 10 -4 6 3 10 8 10 11 0 2 -4 4 -10 4 -5 0 -10
-5 -10 -11z"/>
<path d="M735 480 c-3 -6 1 -7 9 -4 18 7 21 14 7 14 -6 0 -13 -4 -16 -10z"/>
<path d="M678 473 c7 -3 16 -2 19 1 4 3 -2 6 -13 5 -11 0 -14 -3 -6 -6z"/>
<path d="M618 463 c6 -2 18 -2 25 0 6 3 1 5 -13 5 -14 0 -19 -2 -12 -5z"/>
<path d="M846 418 c-4 -22 -4 -43 -2 -46 6 -6 64 17 71 28 3 4 -10 19 -29 33
l-34 26 -6 -41z"/>
<path d="M260 435 c0 -8 4 -15 10 -15 5 0 7 7 4 15 -4 8 -8 15 -10 15 -2 0 -4
-7 -4 -15z"/>
<path d="M420 433 c1 -15 219 -173 225 -163 3 6 4 14 1 18 -3 5 -8 24 -11 43
-11 68 -17 89 -24 89 -4 0 -4 -21 0 -47 4 -27 8 -54 8 -61 1 -11 -117 68 -163
110 -21 19 -36 23 -36 11z"/>
<path d="M348 423 c6 -2 18 -2 25 0 6 3 1 5 -13 5 -14 0 -19 -2 -12 -5z"/>
<path d="M298 413 c7 -3 16 -2 19 1 4 3 -2 6 -13 5 -11 0 -14 -3 -6 -6z"/>
<path d="M680 406 c0 -9 53 -96 58 -96 6 0 48 66 60 93 2 4 -24 7 -57 7 -34 0
-61 -2 -61 -4z"/>
</g>
</svg>
